HIERARCHY
ROOT Hips
{
	OFFSET 0.000000 89.005402 0.000000
	CHANNELS 6 Xposition Yposition Zposition Xrotation Yrotation Zrotation
	JOINT Spine
	{
		OFFSET 0.116900 10.681000 0.373400
		CHANNELS 3 Xrotation Yrotation Zrotation
		JOINT Spine1
		{
			OFFSET 0.000000 13.840401 0.053500
			CHANNELS 3 Xrotation Yrotation Zrotation
			JOINT Spine2
			{
				OFFSET 0.000000 14.712700 -0.366200
				CHANNELS 3 Xrotation Yrotation Zrotation
				JOINT Neck
				{
					OFFSET 0.000000 35.415497 -3.314200
					CHANNELS 3 Xrotation Yrotation Zrotation
					JOINT Head
					{
						OFFSET 0.000000 16.899200 1.218300
						CHANNELS 3 Xrotation Yrotation Zrotation
						JOINT HeadTop_End
						{
							OFFSET 0.000000 22.206207 2.192500
							CHANNELS 3 Xrotation Yrotation Zrotation
							End Site
							{
								OFFSET 0.000000 22.314178 0.000000
							}
						}
					}
				}
				JOINT LeftShoulder
				{
					OFFSET 12.896400 26.716293 -4.548400
					CHANNELS 3 Xrotation Yrotation Zrotation
					JOINT LeftArm
					{
						OFFSET 19.027000 -4.857010 -1.718400
						CHANNELS 3 Xrotation Yrotation Zrotation
						JOINT LeftForeArm
						{
							OFFSET 24.179897 0.000000 0.000000
							CHANNELS 3 Xrotation Yrotation Zrotation
							JOINT LeftHand
							{
								OFFSET 27.156403 0.000000 0.000000
								CHANNELS 3 Xrotation Yrotation Zrotation
								JOINT LeftHandIndex1
								{
									OFFSET 16.441200 0.000000 0.000000
									CHANNELS 3 Xrotation Yrotation Zrotation
									JOINT LeftHandIndex2
									{
										OFFSET 4.821899 0.000000 0.000000
										CHANNELS 3 Xrotation Yrotation Zrotation
										JOINT LeftHandIndex3
										{
											OFFSET 6.386497 0.000000 0.000000
											CHANNELS 3 Xrotation Yrotation Zrotation
											JOINT LeftHandIndex4
											{
												OFFSET 5.188988 0.000000 0.000000
												CHANNELS 3 Xrotation Yrotation Zrotation
												End Site
												{
													OFFSET -0.178703 5.185913 0.000177
												}
											}
										}
									}
								}
								JOINT LeftHandThumb1
								{
									OFFSET 6.534897 -5.032593 5.900300
									CHANNELS 3 Xrotation Yrotation Zrotation
									JOINT LeftHandThumb2
									{
										OFFSET 3.818176 -2.204422 2.204423
										CHANNELS 3 Xrotation Yrotation Zrotation
										JOINT LeftHandThumb3
										{
											OFFSET 3.252098 -1.877594 1.877601
											CHANNELS 3 Xrotation Yrotation Zrotation
											JOINT LeftHandThumb4
											{
												OFFSET 5.251778 -3.032120 3.032117
												CHANNELS 3 Xrotation Yrotation Zrotation
												End Site
												{
													OFFSET 0.000023 6.780014 0.000000
												}
											}
										}
									}
								}
							}
						}
					}
				}
				JOINT RightShoulder
				{
					OFFSET -12.896300 26.716293 -4.548400
					CHANNELS 3 Xrotation Yrotation Zrotation
					JOINT RightArm
					{
						OFFSET -19.027000 -4.857010 -1.718400
						CHANNELS 3 Xrotation Yrotation Zrotation
						JOINT RightForeArm
						{
							OFFSET -24.179897 0.000000 0.000000
							CHANNELS 3 Xrotation Yrotation Zrotation
							JOINT RightHand
							{
								OFFSET -27.156403 0.000000 0.000000
								CHANNELS 3 Xrotation Yrotation Zrotation
								JOINT RightHandThumb1
								{
									OFFSET -6.591202 -4.852203 5.988100
									CHANNELS 3 Xrotation Yrotation Zrotation
									JOINT RightHandThumb2
									{
										OFFSET -3.818176 -2.204422 2.204423
										CHANNELS 3 Xrotation Yrotation Zrotation
										JOINT RightHandThumb3
										{
											OFFSET -3.252098 -1.877594 1.877601
											CHANNELS 3 Xrotation Yrotation Zrotation
											JOINT RightHandThumb4
											{
												OFFSET -5.251778 -3.032120 3.032117
												CHANNELS 3 Xrotation Yrotation Zrotation
												End Site
												{
													OFFSET -0.000023 6.780014 0.000000
												}
											}
										}
									}
								}
								JOINT RightHandIndex1
								{
									OFFSET -16.029404 0.000000 0.000000
									CHANNELS 3 Xrotation Yrotation Zrotation
									JOINT RightHandIndex2
									{
										OFFSET -5.213303 0.000000 0.000000
										CHANNELS 3 Xrotation Yrotation Zrotation
										JOINT RightHandIndex3
										{
											OFFSET -6.386528 0.000000 0.000000
											CHANNELS 3 Xrotation Yrotation Zrotation
											JOINT RightHandIndex4
											{
												OFFSET -5.189026 0.000000 0.000000
												CHANNELS 3 Xrotation Yrotation Zrotation
												End Site
												{
													OFFSET 0.236702 5.183624 0.001972
												}
											}
										}
									}
								}
							}
						}
					}
				}
			}
		}
	}
	JOINT LeftUpLeg
	{
		OFFSET 14.073000 -7.904099 -1.463000
		CHANNELS 3 Xrotation Yrotation Zrotation
		JOINT LeftLeg
		{
			OFFSET -0.109806 -34.073280 4.093200
			CHANNELS 3 Xrotation Yrotation Zrotation
			JOINT LeftFoot
			{
				OFFSET 0.109806 -29.899420 -6.319000
				CHANNELS 3 Xrotation Yrotation Zrotation
				JOINT LeftToeBase
				{
					OFFSET 1.551100 -14.988700 20.535801
					CHANNELS 3 Xrotation Yrotation Zrotation
					JOINT LeftToe_End
					{
						OFFSET 0.221200 0.570800 13.248301
						CHANNELS 3 Xrotation Yrotation Zrotation
						End Site
						{
							OFFSET 0.000000 13.262435 0.000000
						}
					}
				}
			}
		}
	}
	JOINT RightUpLeg
	{
		OFFSET -13.839300 -7.904099 -1.463000
		CHANNELS 3 Xrotation Yrotation Zrotation
		JOINT RightLeg
		{
			OFFSET 0.109694 -34.073219 4.093300
			CHANNELS 3 Xrotation Yrotation Zrotation
			JOINT RightFoot
			{
				OFFSET -0.109694 -29.899384 -6.319200
				CHANNELS 3 Xrotation Yrotation Zrotation
				JOINT RightToeBase
				{
					OFFSET -1.551100 -14.988700 20.535801
					CHANNELS 3 Xrotation Yrotation Zrotation
					JOINT RightToe_End
					{
						OFFSET -0.221200 0.570900 13.248299
						CHANNELS 3 Xrotation Yrotation Zrotation
						End Site
						{
							OFFSET 0.000000 13.262440 0.000000
						}
					}
				}
			}
		}
	}
}
MOTION
Frames: 7
Frame Time: 0.033333
-0.056379 78.624001 3.339209 17.429453 -3.270948 0.079248 14.913394 -1.567402 0.393999 5.346284 -0.845701 -1.559633 5.141028 -0.428915 -0.173901 -8.304046 0.965535 1.844257 -26.440149 5.059195 0.652090 0.000000 0.000000 0.000000 -18.185046 -16.684738 -4.143145 -14.299587 5.321656 -58.617271 0.000000 -50.169655 0.000003 13.748595 -26.697309 34.896980 0.153524 -1.751665 -23.178192 0.809119 2.972614 -30.446528 0.886308 3.100028 -31.903865 -0.000001 -0.000002 -0.000001 11.187897 5.997094 -10.405206 5.363089 8.351974 0.904217 -5.744550 10.815460 15.938745 -0.000003 -0.000002 0.000002 -23.769987 22.742583 4.874672 -5.448441 5.986797 54.374993 0.000014 52.736017 -0.000047 3.172464 25.718681 -41.552692 -1.237012 9.918014 5.832131 6.895597 -18.922595 -2.477987 -4.452426 -14.082265 -16.510188 0.000003 -0.000001 -0.000001 0.710418 3.726554 13.785589 0.253617 -1.517368 18.976135 0.289144 -1.617026 20.275709 0.000001 -0.000003 -0.000003 -41.408599 0.534658 22.113678 34.723719 -3.833530 2.644775 -11.152680 -4.117532 -20.714284 -5.308809 -0.000001 -0.000000 0.000000 -0.000000 -0.000000 -40.246586 -1.615857 -14.910342 36.414249 -2.629619 -8.285804 -10.816224 -2.511804 22.714921 -3.267363 -0.000005 -0.000001 0.000000 -0.000000 -0.000000 
0.048967 77.559944 5.217512 20.946168 -2.377393 -0.193605 13.569220 -1.427544 0.570412 6.100784 -0.874215 -1.107261 5.898922 -0.451266 0.256390 -8.054343 0.912594 1.679918 -23.533630 4.046878 0.982752 -0.000000 -0.000000 0.000000 -18.455718 -18.739643 -4.886768 -15.843245 5.046262 -55.925114 -0.000007 -53.864368 0.000004 5.944396 -24.343071 29.272306 0.249903 -1.936357 -23.247944 0.802662 2.961649 -30.322218 0.842526 3.028674 -31.084939 0.000001 0.000002 0.000001 10.741134 5.486676 -9.675987 5.338492 8.275961 0.857356 -5.723597 10.752827 15.808731 -0.000001 -0.000002 -0.000000 -23.822127 23.649793 5.585747 -8.297691 1.702890 56.802766 -0.000020 54.339578 0.000027 2.864841 23.995354 -38.851339 -1.396653 9.977650 5.978019 6.901434 -18.915644 -2.435190 -4.464356 -13.972082 -16.487889 -0.000000 0.000000 -0.000001 0.696190 3.780168 13.890068 0.254693 -1.520514 19.016809 0.284552 -1.604489 20.111623 0.000001 -0.000000 -0.000002 -45.215231 -1.035271 22.010621 38.190839 -4.143104 2.642211 -14.117876 -3.388905 -20.760305 -5.308809 -0.000001 -0.000001 0.000001 -0.000000 -0.000000 -43.244953 -1.119369 -15.145734 39.486198 -4.031758 -8.376457 -13.606810 -3.056719 23.857238 -3.221225 0.000005 -0.000006 0.000000 0.000000 0.000000 
0.155663 76.121513 7.172554 23.817145 -2.038111 -0.783587 12.242668 -1.275219 0.844036 7.033243 -0.958521 -0.678983 6.832003 -0.536693 0.661725 -7.510951 1.002055 1.217514 -20.393109 3.162802 1.397086 -0.000001 0.000000 -0.000000 -18.890814 -20.566442 -6.150265 -17.820274 4.792778 -52.902291 -0.000011 -57.685660 -0.000016 -0.543254 -21.565028 24.482161 0.346715 -2.120301 -23.324302 0.796263 2.950683 -30.197936 0.797494 2.952787 -30.221784 0.000001 -0.000001 -0.000001 10.304496 4.931563 -8.923541 5.313882 8.199961 0.810455 -5.705175 10.690554 15.678561 0.000002 -0.000002 -0.000000 -23.886874 25.360315 5.929119 -10.244167 -2.905872 59.971117 -0.000020 56.053938 0.000023 2.144806 22.663725 -36.148691 -1.556174 10.036872 6.124369 6.907229 -18.908696 -2.392295 -4.476362 -13.861928 -16.465563 0.000005 0.000000 -0.000001 0.681776 3.833731 13.994508 0.255772 -1.523648 19.057549 0.279946 -1.591947 19.947593 -0.000000 0.000002 -0.000002 -48.514724 -2.922978 22.495913 42.985413 -4.473458 2.598107 -18.093887 -2.315692 -20.909793 -5.308803 0.000000 0.000001 0.000000 0.000000 0.000000 -46.832964 -0.351588 -14.968672 44.717843 -5.373053 -8.473575 -16.133687 -3.582535 24.999681 -3.164868 -0.000006 0.000006 -0.000000 -0.000001 0.000000 
0.262409 74.414520 9.239708 26.597470 -1.996608 -1.171599 11.147974 -1.160446 1.516248 8.080199 -1.150752 -0.188867 7.880343 -0.724165 1.126817 -6.805872 1.096128 0.936272 -17.617845 2.712861 1.536715 0.000000 0.000000 -0.000000 -19.381323 -22.427305 -7.421451 -20.250346 4.660848 -50.006636 0.000024 -61.922222 0.000027 -6.758846 -17.802512 19.650123 0.444029 -2.303467 -23.407489 0.789896 2.939728 -30.073968 0.751349 2.872172 -29.313324 0.000001 0.000001 0.000002 9.877782 4.332993 -8.147266 5.289279 8.123959 0.763483 -5.689933 10.628749 15.548238 0.000000 -0.000003 -0.000001 -23.957445 27.384679 6.104347 -11.447649 -7.401805 63.233331 0.000022 57.845036 -0.000026 0.957991 21.971383 -34.332745 -1.715603 10.095664 6.271245 6.911930 -18.901860 -2.349569 -4.488496 -13.752248 -16.443144 -0.000003 0.000002 -0.000001 0.667129 3.887258 14.098981 0.256876 -1.526788 19.098619 0.275434 -1.579402 19.783897 0.000001 0.000001 -0.000000 -51.403908 -4.774733 22.957521 48.077415 -4.599922 2.512371 -22.556611 -1.118113 -21.123916 -5.308813 -0.000002 -0.000001 0.000000 0.000000 -0.000000 -52.259020 1.689888 -13.934282 53.494755 -8.023605 -8.909303 -17.761448 -4.678899 25.125437 -4.261611 -0.024651 1.450555 -0.000000 -0.000002 -0.000000 
0.389663 72.350388 11.453217 29.442599 -2.315045 -2.296748 10.671199 -1.191491 2.542217 9.049859 -1.428664 0.329363 8.854959 -0.984104 1.617418 -6.247926 1.113864 1.210712 -15.632923 3.130036 1.190637 -0.000005 0.000000 -0.000000 -19.736720 -24.213634 -8.182007 -22.667972 4.407876 -47.431716 0.000037 -66.323787 0.000043 -12.279414 -12.342686 15.974675 0.541864 -2.485974 -23.496534 0.783559 2.928760 -29.950014 0.704501 2.787283 -28.365183 -0.000002 0.000001 -0.000000 9.460812 3.698103 -7.350473 5.264671 8.048017 0.716485 -5.676655 10.567243 15.417849 -0.000001 -0.000002 0.000001 -24.068231 29.092187 6.427256 -12.327004 -11.036261 65.211463 0.000020 59.498304 -0.000027 0.074103 21.922621 -34.940212 -1.874900 10.154004 6.418599 6.914970 -18.895244 -2.307125 -4.500669 -13.642626 -16.420634 -0.000000 0.000001 -0.000001 0.652270 3.940768 14.203459 0.257973 -1.529976 19.139773 0.270954 -1.566877 19.620268 0.000000 -0.000003 0.000005 -54.319357 -7.267203 24.315825 54.033674 -4.904767 2.368953 -27.767089 0.222157 -21.406183 -5.308816 0.000001 0.000003 0.000000 -0.000000 -0.000000 -60.682283 5.613908 -10.411732 66.060148 -8.314715 -9.525728 -14.447250 -8.791361 24.752577 -8.023258 -0.462605 6.125387 -0.000000 0.000003 -0.000000 
0.374379 70.591003 14.046085 29.029520 -2.889633 -3.397552 10.905685 -1.342258 3.272363 9.725558 -1.645501 0.604783 9.538214 -1.178288 1.865260 -6.114131 1.092088 2.089791 -14.525343 4.691248 0.503515 -0.000002 -0.000001 -0.000000 -19.747868 -25.768951 -8.004021 -24.454379 4.135433 -45.422086 0.000043 -70.124856 0.000039 -16.355129 -5.811830 14.789948 0.640101 -2.667902 -23.589773 0.777193 2.917690 -29.825298 0.657668 2.698824 -27.386337 0.000001 -0.000002 -0.000001 9.053346 3.037083 -6.538740 5.240089 7.972088 0.669429 -5.663609 10.505687 15.287457 -0.000001 -0.000001 -0.000001 -24.288634 30.312738 7.065724 -13.438629 -13.335780 65.068432 -0.000009 60.874935 0.000012 0.370629 22.361819 -38.066246 -2.034102 10.211894 6.566443 6.917164 -18.888711 -2.264881 -4.512560 -13.531758 -16.398418 -0.000000 0.000001 0.000001 0.637229 3.994236 14.307920 0.259031 -1.533057 19.179875 0.266466 -1.554239 19.455642 0.000002 -0.000001 0.000002 -52.825496 -8.161653 26.499001 59.070140 -6.235017 2.200320 -33.541307 1.456135 -21.137509 -5.308810 0.000001 0.000000 0.000000 -0.000000 0.000000 -69.124260 11.001721 -9.758937 78.843332 -7.136427 -4.354278 -5.499647 -7.158237 21.417950 -15.051299 -2.806048 11.700844 -0.000001 0.000001 -0.000000 
-0.068791 69.277359 16.960800 29.350388 -5.336848 -3.061600 11.356628 -1.318995 3.412561 10.031559 -1.655155 0.489079 9.849698 -1.176494 1.725606 -6.360892 1.165522 3.143941 -14.033528 7.174289 -0.274609 -0.000003 -0.000000 0.000000 -19.404127 -27.295789 -6.917048 -25.329133 4.521271 -44.385359 -0.000020 -72.944918 0.000002 -20.008003 0.364121 15.770946 0.738675 -2.849426 -23.685993 0.770826 2.906564 -29.699800 0.611302 2.607451 -26.384579 0.000001 -0.000001 -0.000001 8.654926 2.358064 -5.716411 5.215491 7.896182 0.622318 -5.650133 10.443983 15.157160 0.000001 0.000001 -0.000000 -24.528550 31.771305 7.553648 -14.930170 -14.625090 63.638908 -0.000034 62.054215 0.000033 1.855953 23.361504 -41.795222 -2.193170 10.269348 6.714750 6.919877 -18.882118 -2.222517 -4.524271 -13.419706 -16.376596 -0.000003 -0.000003 -0.000001 0.621971 4.047682 14.412403 0.260083 -1.536068 19.219032 0.261998 -1.541526 19.290023 -0.000001 0.000001 0.000001 -48.988600 -7.552286 28.702613 61.320974 -5.286277 2.008212 -38.994889 3.090752 -22.109042 -5.308826 -0.000004 -0.000001 0.000001 0.000000 0.000000 -77.242357 11.898626 -9.919592 80.845131 -4.046667 -2.822053 2.087151 -6.105705 19.620955 -17.411785 -3.480642 12.008168 0.000001 -0.000002 0.000000 
